# xmcd
# Copyright (C) 1995-1998 Ti Kan
#
# Track frame offsets:
#       182
#       18180
#       28125
#       34030
#       44892
#       52417
#       59327
#       74375
#       85477
#       95350
#       107457
#       115580
#       118595
#       131120
#       135320
#       143970
#       150087
#       160755
#       172427
#       181507
#
# Disc length: 2598 seconds
#
# Revision: 2
# Processed by: cddbd v1.5.2PL0 Copyright (c) Steve Scherf et al.
# Submitted via: CD-Import v1.0
#
DISCID=140a2414
DTITLE=Bérurier Noir - Macadam Massacre
DYEAR=02
DGENRE=
TTITLE0=Macadam Massacre
TTITLE1=Baston
TTITLE2=Elsa Je T'aime
TTITLE3=Chromosome 4
TTITLE4=La Nuit Noire
TTITLE5=Johny Revient D'la Guerre
TTITLE6=Frères D'armes
TTITLE7=J'ai Peur
TTITLE8=Manifeste
TTITLE9=Noir Les Horreurs
TTITLE10=La Mort Au Choix
TTITLE11=Nada 1
TTITLE12=Bûcherons
TTITLE13=Nada 2
TTITLE14=Amputé
TTITLE15=Nada 3
TTITLE16=Manifeste
TTITLE17=Hôpital Lobotomie
TTITLE18=Nada
TTITLE19=Manifeste 2 (Le Noir Les Horreurs)
EXTD=
EXTT0=
EXTT1=
EXTT2=
EXTT3=
EXTT4=
EXTT5=
EXTT6=
EXTT7=
EXTT8=
EXTT9=
EXTT10=
EXTT11=
EXTT12=
EXTT13=
EXTT14=
EXTT15=
EXTT16=
EXTT17=
EXTT18=
EXTT19=
PLAYORDER=
